<?xml version="1.0" encoding="UTF-8"?><svg id="Layer_1" xmlns="http://www.w3.org/2000/svg" viewBox="0 0 512 512"><defs><style>.cls-1{fill:#e50914;}</style></defs><g id="Netflix_Logo_RGB"><path class="cls-1" d="M379.89,305.8c6.4,.49,12.78,1.01,19.16,1.58v-112.49h-19.16v110.91Zm-308.23-41.74l-24.95-69.17H28.5v122.24c6.37-.91,12.76-1.78,19.16-2.61v-66.47l22.19,63.74c6.98-.81,13.97-1.58,20.98-2.3v-114.6h-19.16v69.17Zm37.59,43.65c17.66-1.6,35.4-2.93,53.22-3.95v-18.88c-11.39,.66-22.74,1.44-34.06,2.33v-28.58c7.43-.07,17.21-.3,25.87-.19v-18.88c-6.92-.02-18.05,.1-25.87,.2v-25.8h34.06v-19.05h-53.22v112.82Zm65.5-93.77h20.05v88.28c6.38-.24,12.76-.44,19.16-.61v-87.68h20.05v-19.05h-59.27v19.05Zm71.55,87.16h19.16v-43.59h25.97v-18.88h-25.97v-24.69h34.33v-19.05h-53.49v106.21Zm237.2-106.21h-21.05l-13.87,32.16-12.47-32.16h-20.73l22.28,57.46-24.32,56.37c6.73,.66,13.44,1.36,20.14,2.1l14.14-32.77,14.01,36.13c7.3,.94,14.57,1.92,21.84,2.95h.03s-24.96-64.39-24.96-64.39l24.96-57.85Zm-152.27-.01h-19.16v107.16c17.41,.6,34.75,1.48,52.02,2.63v-18.88c-10.92-.73-21.88-1.35-32.86-1.86v-89.05Z"/></g></svg>