<svg role="img" viewBox="0 0 96 96" xmlns="http://www.w3.org/2000/svg" id="365datascience--Streamline-Simple-Icons" height="96" width="96"><desc>365datascience Streamline Icon: https://streamlinehq.com</desc><title>365 Data Science</title><path d="M5.998 54.5792v-3.4308h3.2752c2.3008 0 4.732 -0.608 4.762 -2.6724 0 -1.2712 -1.0348 -2.954 -4.6664 -2.954 -2.0096 0 -4.732 0.6984 -4.732 2.7328h-4.28c0 -4.7972 4.8624 -6.5304 9.042 -6.5304 4.28 0 8.8816 2.0344 8.9164 6.7664a4.6864 4.6864 0 0 1 -3.1444 4.3504c2.17 0.6984 3.6972 2.798 3.6972 4.672 0 5.4352 -5.2196 7.0324 -9.5948 7.0324 -4.3752 0 -9.2432 -1.738 -9.2732 -6.7916h4.31c0 2.2908 3.1448 3.0844 4.9932 3.0844 2.1704 0 5.0588 -0.8892 5.0588 -3.2752 0 -1.3312 -0.7484 -2.984 -4.8324 -2.984zm20.0332 -5.7216v3.3356c1.0048 -1.5072 3.4664 -2.3512 5.2496 -2.3512 4.5712 0 9.3688 1.874 9.3688 7.4048 0 4.928 -4.828 7.3744 -9.3988 7.3744 -4.5716 0 -9.4692 -2.4464 -9.4692 -7.4348V48.888c0 -4.958 4.672 -7.2736 9.3384 -7.2736 4.928 0 9.3036 1.904 9.3036 6.5756H36.1688c0 -1.9692 -2.512 -2.954 -4.9584 -2.954 -2.562 -0.03 -5.154 1.3364 -5.154 3.7476zm10.3736 8.3892c0 -2.4464 -2.2708 -3.7476 -5.124 -3.7476 -2.8532 0 -5.2848 1.2708 -5.2496 3.7476 0.0352 2.4764 2.4316 3.632 5.2196 3.632 2.6872 0 5.154 -1.1856 5.154 -3.632zm23.9868 -11.2476h-12.252v3.908h4.4052c4.8328 0 9.1428 1.9392 9.1124 7.1488 0 5.0532 -4.3148 7.4696 -8.8864 7.4696 -4.988 0 -9.268 -1.748 -9.3032 -6.9624h4.2548c0 2.4516 2.8532 3.084 4.9932 3.084 2.14 0 4.6968 -0.954 4.6968 -3.5912 0.0352 -2.512 -2.5116 -3.24 -4.8624 -3.24h-8.5952v-11.76h16.4368zm31.6676 -14.7588a3.7976 3.7976 0 0 0 -1.8236 7.1232l-7.7008 18.8732a3.7776 3.7776 0 0 0 -3.1952 0.3316l-8.188 -9.3688a3.7728 3.7728 0 0 0 -0.356 -5.08 3.7724 3.7724 0 0 0 -5.642 4.9648 3.772 3.772 0 0 0 4.9932 0.9992l8.1832 9.3688a3.8072 3.8072 0 0 0 -0.8288 2.3708 3.7964 3.7964 0 0 0 1.0616 2.7744 3.7972 3.7972 0 0 0 6.2804 -1.2792 3.7964 3.7964 0 0 0 0.248 -1.4952 3.7728 3.7728 0 0 0 -1.3708 -2.9184l7.796 -19.0892a3.3056 3.3056 0 0 0 0.548 0.0404 3.7972 3.7972 0 0 0 3.6332 -2.31 3.7972 3.7972 0 0 0 -0.8592 -4.2188 3.798 3.798 0 0 0 -2.7744 -1.0616Z" fill="#000000" stroke-width="4"></path></svg>